<svg width="56" height="56" viewBox="0 0 56 56" fill="none" xmlns="http://www.w3.org/2000/svg">
<path d="M45.7331 28.0029L55.9997 17.7363L38.2664 0.00292969L10.2664 28.0029" fill="#A6A600"/>
<path d="M18.6667 28.005C18.6667 25.6166 19.5777 23.2282 21.4005 21.4054C25.0451 17.7607 30.955 17.7607 34.5997 21.4054C36.4225 23.2282 37.3334 25.6166 37.3334 28.005" fill="#7D7D00"/>
<path opacity="0.7" d="M43.1409 26.0593L41.8202 24.7387L49.0797 17.4792L38.52 6.92039L31.2605 14.1799L29.9398 12.8592L37.8592 4.93985C38.2241 4.57585 38.8149 4.57492 39.1798 4.93985L51.0602 16.8193C51.2357 16.9948 51.3328 17.2319 51.3328 17.4792C51.3328 17.7275 51.2357 17.9645 51.0602 18.14L43.1409 26.0593Z" fill="#7D7D00"/>
<path d="M39.5894 23.0161L39.5894 21.1484L41.4571 21.1484L41.4571 23.0161L39.5894 23.0161Z" fill="#C4C400"/>
<path d="M42.2013 20.4102L42.2013 18.5435L44.0689 18.5435L44.0689 20.4102L42.2013 20.4102Z" fill="#C4C400"/>
<path d="M32.9882 16.4395L32.9895 14.5717L34.8563 14.5731L34.855 16.4408L32.9882 16.4395Z" fill="#C4C400"/>
<path d="M35.3934 13.5332L35.8766 11.7301L37.6805 12.2135L37.1974 14.0166L35.3934 13.5332Z" fill="#C4C400"/>
<path d="M14 52.2671L17.7333 56.0004L21.4667 52.2671" fill="#999900"/>
<path d="M26.8178 27.8079L26.7199 27.8965C26.5176 28.0795 26.3158 28.2621 26.114 28.4448C26.1053 28.4536 26.0948 28.4603 26.0831 28.4646C26.0715 28.4688 26.0591 28.4705 26.0468 28.4694C25.616 28.4376 25.185 28.4066 24.7541 28.3765C24.7449 28.3756 24.736 28.3743 24.7172 28.3706L26.1458 27.0779C26.1407 27.0587 26.1294 27.0419 26.1138 27.0298C25.6894 26.5608 25.265 26.0918 24.8407 25.6228C24.7813 25.5537 24.71 25.4957 24.6302 25.4516C24.5018 25.3823 24.3519 25.3646 24.2109 25.4023C23.9852 25.4523 23.7859 25.5835 23.6508 25.7711C23.6121 25.8216 23.5862 25.8807 23.5754 25.9435C23.4769 25.9163 23.3802 25.883 23.286 25.8436C23.1502 25.7907 23.0183 25.7294 22.8867 25.6649C22.8129 25.6297 22.7515 25.5729 22.7107 25.502C22.6699 25.4312 22.6516 25.3495 22.658 25.268C22.6703 25.1511 22.7022 25.0373 22.7526 24.9311C22.8532 24.6802 23.0094 24.4554 23.2094 24.2734C23.3428 24.1561 23.5024 24.0722 23.6748 24.0289C23.8471 23.9856 24.0273 23.984 24.2003 24.0244C24.6034 24.1143 24.9748 24.3109 25.2759 24.5936C25.5009 24.8069 25.7139 25.0326 25.9139 25.2695C26.241 25.6259 26.5631 25.987 26.8877 26.3457C26.8958 26.3546 26.9042 26.364 26.9115 26.372C26.933 26.3711 26.943 26.355 26.9549 26.3442C27.0745 26.236 27.194 26.1279 27.3136 26.0197C27.3213 26.0111 27.3309 26.0043 27.3416 25.9998C27.3522 25.9954 27.3637 25.9934 27.3753 25.994L28.6875 26.0745C28.6951 26.0753 28.7023 26.0772 28.7212 26.0802L27.5881 27.1054C27.5893 27.1154 27.5926 27.125 27.5977 27.1337C27.6027 27.1424 27.6095 27.15 27.6176 27.1559C28.2315 27.8344 28.8454 28.5128 29.4593 29.1913C29.5962 29.3434 29.7833 29.4413 29.9863 29.4672C30.1894 29.4931 30.3949 29.4453 30.5657 29.3324C30.9063 29.1268 31.1563 28.7998 31.2652 28.4171C31.4511 27.809 31.4776 27.1633 31.3423 26.5419C31.2908 26.2977 31.1943 26.0653 31.0575 25.8565C31.0197 25.7918 30.9751 25.7313 30.9244 25.6761L30.806 25.8009C30.6275 25.9939 30.4026 26.138 30.1527 26.2194C29.9335 26.2921 29.6952 26.2808 29.4839 26.1876C29.1053 26.0303 28.7966 25.7408 28.6155 25.3729C28.5475 25.2451 28.5063 25.1047 28.4942 24.9604C28.4821 24.8161 28.4995 24.6708 28.5454 24.5334C28.6118 24.3587 28.7127 24.1992 28.8421 24.0644C29.0073 23.8708 29.2137 23.7165 29.4461 23.6128C29.6443 23.5291 29.8583 23.4897 30.0733 23.4971C30.6752 23.5094 31.2506 23.7475 31.685 24.1643C32.2272 24.6737 32.5866 25.3474 32.7079 26.0814C32.8352 26.7351 32.8316 27.4076 32.6973 28.0599C32.5732 28.6595 32.2931 29.2158 31.8855 29.6728C31.7491 29.8366 31.5932 29.9831 31.4212 30.1091C31.1849 30.2646 30.9188 30.369 30.6398 30.4158C30.2349 30.4981 29.8172 30.4936 29.4141 30.4027C29.3534 30.3877 29.2936 30.3689 29.2352 30.3465C29.1071 30.2997 28.9926 30.2223 28.9016 30.1209C28.2227 29.3648 27.5383 28.6143 26.8565 27.8608L26.8178 27.8079Z" fill="#B3B300"/>
<path d="M0 28.0024H56V52.2691H0V28.0024Z" fill="#B3B300"/>
<path d="M28.0001 49.4689C33.1547 49.4689 37.3334 45.2902 37.3334 40.1356C37.3334 34.9809 33.1547 30.8022 28.0001 30.8022C22.8454 30.8022 18.6667 34.9809 18.6667 40.1356C18.6667 45.2902 22.8454 49.4689 28.0001 49.4689Z" fill="#999900"/>
<path d="M52.2647 49.468H41.0656V47.6013H51.3314V32.6689H41.0656V30.8022H52.2647C52.7808 30.8022 53.198 31.2194 53.198 31.7356V48.5356C53.198 49.0508 52.7808 49.468 52.2647 49.468Z" fill="#999900"/>
<path d="M14.9323 49.4689H3.73326C3.21713 49.4689 2.79993 49.0508 2.79993 48.5356V31.7356C2.79993 31.2194 3.21713 30.8022 3.73233 30.8022H14.9323L14.9333 32.6689H4.66659V47.6022H14.9323V49.4689Z" fill="#999900"/>
<path d="M40.6789 44.8027L41.9981 43.4835L43.3181 44.8034L41.9988 46.1227L40.6789 44.8027Z" fill="#CCCC00"/>
<path d="M44.4123 44.8027L45.7316 43.4835L47.0515 44.8034L45.7322 46.1227L44.4123 44.8027Z" fill="#CCCC00"/>
<path d="M41.9982 36.7896L40.6789 35.4703L41.9988 34.1503L43.3181 35.4696L41.9982 36.7896Z" fill="#CCCC00"/>
<path d="M44.4123 35.4697L45.7316 34.1505L47.0515 35.4704L45.7322 36.7897L44.4123 35.4697Z" fill="#CCCC00"/>
<path d="M8.94678 35.4697L10.266 34.1505L11.586 35.4704L10.2667 36.7897L8.94678 35.4697Z" fill="#CCCC00"/>
<path d="M12.6799 35.4697L13.9991 34.1505L15.3191 35.4704L13.9998 36.7897L12.6799 35.4697Z" fill="#CCCC00"/>
<path d="M8.94647 44.8027L10.2657 43.4835L11.5857 44.8034L10.2664 46.1227L8.94647 44.8027Z" fill="#CCCC00"/>
<path d="M12.6801 44.8027L13.9994 43.4835L15.3193 44.8034L14 46.1227L12.6801 44.8027Z" fill="#CCCC00"/>
<path d="M25.9352 40.042H25.8031C25.5303 40.042 25.2581 40.042 24.9859 40.042C24.9736 40.0427 24.9613 40.0406 24.9498 40.0359C24.9383 40.0313 24.928 40.0243 24.9196 40.0151C24.6215 39.7025 24.3227 39.3904 24.0235 39.0789C24.0172 39.072 24.0114 39.0652 24 39.0497H25.9266C25.9357 39.0321 25.9386 39.0121 25.9352 38.9926C25.9352 38.3602 25.9352 37.7276 25.9352 37.0952C25.9375 37.004 25.9236 36.9132 25.894 36.827C25.8453 36.6894 25.746 36.5757 25.6162 36.5091C25.4153 36.3947 25.1794 36.3583 24.9534 36.4067C24.8908 36.4182 24.8319 36.4447 24.7818 36.4839C24.727 36.3978 24.6777 36.3082 24.6343 36.2157C24.5691 36.0854 24.5124 35.9514 24.4581 35.8153C24.427 35.7397 24.4196 35.6564 24.4368 35.5765C24.4541 35.4965 24.4953 35.4237 24.5548 35.3676C24.6423 35.2892 24.7424 35.2262 24.8509 35.1812C25.0939 35.0627 25.3606 35.0008 25.6309 35C25.8086 35.0025 25.9833 35.0474 26.1401 35.131C26.297 35.2145 26.4316 35.3342 26.5328 35.4803C26.7714 35.8174 26.9149 36.2124 26.9485 36.624C26.9721 36.9331 26.9787 37.2434 26.968 37.5532C26.9714 38.037 26.968 38.5208 26.968 39.0046C26.968 39.0166 26.968 39.0292 26.968 39.0401C26.9846 39.0538 27.0028 39.0486 27.0188 39.0486C27.1801 39.0486 27.3413 39.0486 27.5026 39.0486C27.5141 39.0474 27.5258 39.0488 27.5367 39.0527C27.5475 39.0565 27.5574 39.0628 27.5656 39.071L28.4845 40.0111C28.4896 40.0168 28.4937 40.023 28.5057 40.0379H26.9776C26.9718 40.0461 26.9678 40.0554 26.9658 40.0653C26.9637 40.0751 26.9636 40.0853 26.9656 40.0951C26.9656 41.0101 26.9656 41.9251 26.9656 42.8401C26.9651 43.0447 27.0381 43.2428 27.1713 43.3982C27.3045 43.5537 27.489 43.6561 27.6913 43.6869C28.0818 43.7631 28.4867 43.6883 28.8242 43.4777C29.37 43.1515 29.8229 42.6905 30.1394 42.1389C30.2651 41.9233 30.3495 41.6862 30.3882 41.4396C30.4036 41.3663 30.4111 41.2914 30.4106 41.2165L30.239 41.2296C29.9772 41.253 29.7137 41.209 29.4738 41.1016C29.2625 41.0085 29.0934 40.8402 28.9992 40.6293C28.824 40.2586 28.7894 39.8368 28.9019 39.4426C28.9373 39.3021 29.0008 39.1704 29.0887 39.0553C29.1766 38.9402 29.287 38.8441 29.4132 38.773C29.5796 38.688 29.7615 38.6375 29.9479 38.6243C30.2003 38.5916 30.4568 38.6157 30.6987 38.6947C30.9018 38.7657 31.087 38.88 31.2414 39.0298C31.6795 39.4427 31.9464 40.0053 31.9889 40.6058C32.0491 41.3474 31.8636 42.0881 31.461 42.7137C31.1168 43.2838 30.663 43.7801 30.1258 44.1736C29.6314 44.535 29.0505 44.7596 28.4416 44.8249C28.2306 44.8549 28.0166 44.8589 27.8046 44.8369C27.5251 44.7937 27.2576 44.6926 27.0194 44.5401C26.664 44.3294 26.3572 44.0458 26.1193 43.708C26.0843 43.6561 26.0526 43.6021 26.0244 43.5462C25.9608 43.4257 25.9278 43.2914 25.9283 43.1552C25.9323 42.139 25.9283 41.1233 25.9283 40.1072L25.9352 40.042Z" fill="#CCCC00"/>
</svg>
