<svg width="60" height="60" viewBox="0 0 60 60" fill="none" xmlns="http://www.w3.org/2000/svg">
<path d="M21.0713 47.0399L12.12 51.9225C11.5947 52.209 11.1226 52.561 10.6833 52.9448C15.9022 57.3452 22.6392 59.9999 30 59.9999C37.3064 59.9999 44.0003 57.3848 49.2045 53.0444C48.7245 52.6391 48.2037 52.2746 47.6264 51.9871L38.0411 47.195C36.8026 46.5757 36.0203 45.3101 36.0203 43.9256V40.1648C36.2898 39.858 36.5977 39.464 36.9271 38.9988C38.2335 37.1535 39.2218 35.1237 39.9068 32.9942C41.1362 32.615 42.0419 31.4795 42.0419 30.1301V26.1157C42.0419 25.2327 41.649 24.4437 41.0388 23.8912V18.0882C41.0388 18.0882 42.2309 9.05762 30.0011 9.05762C17.7713 9.05762 18.9634 18.0882 18.9634 18.0882V23.8912C18.352 24.4437 17.9603 25.2327 17.9603 26.1157V30.1301C17.9603 31.1874 18.5162 32.118 19.3483 32.6557C20.3513 37.0222 22.9777 40.1648 22.9777 40.1648V43.8327C22.9766 45.1686 22.2452 46.3991 21.0713 47.0399Z" fill="#9B9899"/>
<path d="M30.5128 0.00446736C13.9471 -0.278552 0.287489 12.9215 0.00447031 29.4871C-0.156284 38.88 4.03013 47.3218 10.6958 52.9358C11.1316 52.5554 11.5992 52.2068 12.1188 51.9237L21.0701 47.0411C22.2441 46.4003 22.9754 45.1698 22.9754 43.8317V40.1637C22.9754 40.1637 20.3479 37.0211 19.346 32.6547C18.515 32.1169 17.9581 31.1875 17.9581 30.129V26.1147C17.9581 25.2317 18.3509 24.4426 18.9611 23.8901V18.0871C18.9611 18.0871 17.769 9.05655 29.9988 9.05655C42.2286 9.05655 41.0366 18.0871 41.0366 18.0871V23.8901C41.6479 24.4426 42.0396 25.2317 42.0396 26.1147V30.129C42.0396 31.4784 41.1339 32.6139 39.9045 32.9932C39.2196 35.1226 38.2313 37.1524 36.9249 38.9977C36.5954 39.463 36.2875 39.8569 36.0181 40.1637V43.9245C36.0181 45.309 36.8003 46.5758 38.0388 47.1939L47.6241 51.986C48.1992 52.2736 48.7188 52.6369 49.1977 53.0411C55.6619 47.6502 59.8381 39.5898 59.9932 30.5128C60.2785 13.9471 47.0796 0.287486 30.5128 0.00446736Z" fill="#F7F7F7"/>
</svg>
